<?xml version="1.0" encoding="UTF-8" standalone="no"?><!DOCTYPE svg PUBLIC "-//W3C//DTD SVG 1.1//EN" "http://www.w3.org/Graphics/SVG/1.1/DTD/svg11.dtd"><svg width="100%" height="100%" viewBox="0 0 422 290" version="1.1" xmlns="http://www.w3.org/2000/svg" xmlns:xlink="http://www.w3.org/1999/xlink" xml:space="preserve" xmlns:serif="http://www.serif.com/" style="fill-rule:evenodd;clip-rule:evenodd;stroke-linejoin:round;stroke-miterlimit:2;"><g><clipPath id="_clip1"><rect x="0" y="-150" width="440" height="440"/></clipPath><g clip-path="url(#_clip1)"><path d="M220.111,290.223c121.565,0 220.112,-98.547 220.112,-220.112c0,-121.564 -98.547,-220.111 -220.112,-220.111c-121.564,0 -220.111,98.547 -220.111,220.112c0,121.564 98.547,220.111 220.111,220.111Z" style="fill:#fff;fill-opacity:0.03;fill-rule:nonzero;"/><path d="M220.111,246.513c97.424,0 176.402,-78.978 176.402,-176.402c-0,-97.423 -78.978,-176.401 -176.402,-176.401c-97.423,0 -176.401,78.978 -176.401,176.401c-0,97.424 78.978,176.402 176.401,176.402Z" style="fill:#fff;fill-opacity:0.03;fill-rule:nonzero;"/><path d="M97.009,35.322c-0.223,0.669 -0.446,1.338 -0.446,2.007c-2.453,9.143 -3.791,18.287 -4.237,27.207c-0.446,10.036 0.446,20.071 2.23,29.661c8.921,45.94 42.818,85.19 90.989,98.794c39.249,11.15 79.614,2.453 110.167,-19.848c13.826,-10.036 25.646,-22.971 34.566,-37.912c5.576,-9.367 10.036,-19.625 13.158,-30.553c2.899,-10.035 4.46,-20.071 4.683,-29.883c0.669,-17.841 -2.453,-35.459 -8.697,-51.516c-14.05,-35.904 -44.379,-65.119 -84.298,-76.269c-43.487,-12.266 -87.643,-0.669 -119.088,26.538c-18.287,15.834 -32.113,36.797 -39.027,61.774Z" style="fill:#fff;fill-opacity:0.1;fill-rule:nonzero;"/><path d="M97.01,35.322c-0.224,0.669 -0.447,1.338 -0.447,2.007l251.333,37.466c0.669,-17.841 -2.453,-35.459 -8.697,-51.515l-203.163,-49.732c-18.287,15.834 -32.113,36.797 -39.027,61.774Z" style="fill:#fff;fill-opacity:0.05;fill-rule:nonzero;"/><path d="M92.326,64.76c-0.446,10.035 0.446,20.071 2.23,29.66l200.933,78.946c13.826,-10.036 25.646,-22.97 34.566,-37.912l-237.729,-70.694Z" style="fill:#fff;fill-opacity:0.05;fill-rule:nonzero;"/><path d="M153.431,11.906c-2.007,7.359 -1.115,14.941 2.23,21.186c3.568,6.69 9.812,12.042 17.618,14.272c15.164,4.238 31.221,-4.683 35.458,-19.848c1.116,-3.568 1.339,-7.359 0.892,-10.927c-1.115,-11.374 -9.143,-21.409 -20.74,-24.531c-15.387,-4.238 -31.221,4.683 -35.458,19.848Z" style="fill:#41ada2;fill-rule:nonzero;"/><path d="M156.553,22.387c-1.115,3.568 -1.338,7.359 -0.892,10.927c3.568,6.691 9.812,12.043 17.618,14.273c15.164,4.237 31.221,-4.683 35.458,-19.848c1.115,-3.568 1.338,-7.359 0.892,-10.927c-3.568,-6.691 -9.812,-12.043 -17.618,-14.273c-15.387,-4.46 -31.221,4.46 -35.458,19.848Z" style="fill:#51d8cb;fill-opacity:0.5;fill-rule:nonzero;"/><path d="M270.735,95.534c-3.122,5.353 -3.791,11.151 -2.453,16.726c1.338,5.798 5.129,11.151 10.704,14.273c10.928,6.244 24.754,2.453 30.999,-8.252c1.561,-2.676 2.453,-5.352 2.899,-8.251c1.338,-8.92 -2.899,-18.064 -11.151,-22.97c-10.927,-6.021 -24.754,-2.23 -30.998,8.474Z" style="fill:#41ada2;fill-rule:nonzero;"/><path d="M270.958,104.232c-1.561,2.676 -2.453,5.352 -2.899,8.251c1.338,5.798 5.129,11.151 10.705,14.273c10.927,6.244 24.754,2.453 30.998,-8.252c1.561,-2.676 2.453,-5.352 2.899,-8.251c-1.338,-5.798 -5.129,-11.15 -10.704,-14.273c-10.705,-6.467 -24.531,-2.676 -30.999,8.252Z" style="fill:#51d8cb;fill-opacity:0.5;fill-rule:nonzero;"/><path d="M250.663,130.771c-3.123,2.23 -5.13,5.352 -5.799,8.697c-0.892,3.568 -0.223,7.583 2.23,10.928c4.461,6.467 13.158,8.251 19.848,3.791c1.561,-1.115 2.9,-2.453 3.792,-3.791c3.122,-4.684 3.345,-10.928 0,-15.834c-4.907,-6.69 -13.604,-8.251 -20.071,-3.791Z" style="fill:#41ada2;fill-rule:nonzero;"/><path d="M248.433,135.677c-1.561,1.115 -2.899,2.453 -3.791,3.791c-0.892,3.568 -0.223,7.583 2.23,10.928c4.46,6.467 13.158,8.251 19.848,3.791c1.561,-1.115 2.899,-2.453 3.791,-3.791c0.892,-3.568 0.223,-7.583 -2.23,-10.928c-4.46,-6.69 -13.38,-8.251 -19.848,-3.791Z" style="fill:#51d8cb;fill-opacity:0.5;fill-rule:nonzero;"/><path d="M215.651,14.805c-0.892,3.345 -0.446,6.69 0.892,9.366c1.561,2.899 4.237,5.353 7.805,6.245c6.69,2.007 13.827,-2.008 15.834,-8.921c0.446,-1.561 0.669,-3.345 0.446,-4.906c-0.446,-5.129 -4.014,-9.589 -9.144,-10.928c-6.913,-1.561 -14.049,2.454 -15.833,9.144Z" style="fill:#41ada2;fill-rule:nonzero;"/><path d="M216.989,19.488c-0.446,1.561 -0.669,3.345 -0.446,4.906c1.561,2.899 4.237,5.352 7.805,6.244c6.691,2.007 13.827,-2.007 15.834,-8.92c0.446,-1.561 0.669,-3.345 0.446,-4.906c-1.561,-2.9 -4.237,-5.353 -7.805,-6.245c-6.913,-1.784 -14.05,2.007 -15.834,8.921Z" style="fill:#51d8cb;fill-rule:nonzero;"/><path d="M122.209,124.526c-0.446,1.338 -0.223,2.676 0.446,4.014c0.669,1.338 1.784,2.23 3.346,2.676c2.899,0.892 5.798,-0.892 6.467,-3.568c0.223,-0.669 0.223,-1.338 0.223,-2.007c-0.223,-2.007 -1.784,-4.014 -3.791,-4.46c-2.899,-1.115 -5.799,0.669 -6.691,3.345Z" style="fill:#41ada2;fill-rule:nonzero;"/><path d="M122.878,126.533c-0.223,0.669 -0.223,1.338 -0.223,2.007c0.669,1.338 1.784,2.23 3.345,2.676c2.899,0.892 5.798,-0.892 6.468,-3.568c0.223,-0.669 0.223,-1.338 0.223,-2.007c-0.67,-1.338 -1.785,-2.23 -3.346,-2.676c-2.899,-0.892 -5.798,0.669 -6.467,3.568Z" style="fill:#51d8cb;fill-opacity:0.5;fill-rule:nonzero;"/><path d="M169.487,122.188c-1.338,0.223 -2.676,0.892 -3.345,2.007c-0.892,1.115 -1.338,2.453 -1.115,4.014c0.446,2.899 3.122,4.907 6.021,4.461c0.669,-0 1.338,-0.446 1.784,-0.67c1.785,-1.115 2.9,-3.122 2.454,-5.352c-0.223,-2.899 -2.9,-4.906 -5.799,-4.46Z" style="fill:#41ada2;fill-rule:nonzero;"/><path d="M167.926,124.526c-0.669,0 -1.338,0.446 -1.784,0.669c-0.892,1.115 -1.338,2.453 -1.115,4.014c0.446,2.899 3.122,4.906 6.021,4.46c0.669,0 1.338,-0.446 1.784,-0.669c0.892,-1.115 1.338,-2.453 1.115,-4.014c-0.446,-2.899 -3.122,-4.906 -6.021,-4.46Z" style="fill:#51d8cb;fill-opacity:0.5;fill-rule:nonzero;"/></g></g></svg>